<svg id="visual" viewBox="0 0 900 600" width="900" height="600" xmlns="http://www.w3.org/2000/svg" xmlns:xlink="http://www.w3.org/1999/xlink" version="1.1"><path d="M0 79L13.7 80C27.3 81 54.7 83 82 80C109.3 77 136.7 69 163.8 80C191 91 218 121 245.2 124C272.3 127 299.7 103 327 109C354.3 115 381.7 151 409 152C436.3 153 463.7 119 491 108C518.3 97 545.7 109 573 120C600.3 131 627.7 141 654.8 150C682 159 709 167 736.2 175C763.3 183 790.7 191 818 175C845.3 159 872.7 119 886.3 99L900 79L900 0L886.3 0C872.7 0 845.3 0 818 0C790.7 0 763.3 0 736.2 0C709 0 682 0 654.8 0C627.7 0 600.3 0 573 0C545.7 0 518.3 0 491 0C463.7 0 436.3 0 409 0C381.7 0 354.3 0 327 0C299.7 0 272.3 0 245.2 0C218 0 191 0 163.8 0C136.7 0 109.3 0 82 0C54.7 0 27.3 0 13.7 0L0 0Z" fill="#cabac8"></path><path d="M0 223L13.7 212C27.3 201 54.7 179 82 173C109.3 167 136.7 177 163.8 185C191 193 218 199 245.2 204C272.3 209 299.7 213 327 218C354.3 223 381.7 229 409 222C436.3 215 463.7 195 491 184C518.3 173 545.7 171 573 179C600.3 187 627.7 205 654.8 224C682 243 709 263 736.2 268C763.3 273 790.7 263 818 252C845.3 241 872.7 229 886.3 223L900 217L900 77L886.3 97C872.7 117 845.3 157 818 173C790.7 189 763.3 181 736.2 173C709 165 682 157 654.8 148C627.7 139 600.3 129 573 118C545.7 107 518.3 95 491 106C463.7 117 436.3 151 409 150C381.7 149 354.3 113 327 107C299.7 101 272.3 125 245.2 122C218 119 191 89 163.8 78C136.7 67 109.3 75 82 78C54.7 81 27.3 79 13.7 78L0 77Z" fill="#adb5d5"></path><path d="M0 487L13.7 475C27.3 463 54.7 439 82 426C109.3 413 136.7 411 163.8 422C191 433 218 457 245.2 443C272.3 429 299.7 377 327 372C354.3 367 381.7 409 409 430C436.3 451 463.7 451 491 450C518.3 449 545.7 447 573 444C600.3 441 627.7 437 654.8 426C682 415 709 397 736.2 389C763.3 381 790.7 383 818 372C845.3 361 872.7 337 886.3 325L900 313L900 215L886.3 221C872.7 227 845.3 239 818 250C790.7 261 763.3 271 736.2 266C709 261 682 241 654.8 222C627.7 203 600.3 185 573 177C545.7 169 518.3 171 491 182C463.7 193 436.3 213 409 220C381.7 227 354.3 221 327 216C299.7 211 272.3 207 245.2 202C218 197 191 191 163.8 183C136.7 175 109.3 165 82 171C54.7 177 27.3 199 13.7 210L0 221Z" fill="#75b7d2"></path><path d="M0 601L13.7 601C27.3 601 54.7 601 82 601C109.3 601 136.7 601 163.8 601C191 601 218 601 245.2 601C272.3 601 299.7 601 327 601C354.3 601 381.7 601 409 601C436.3 601 463.7 601 491 601C518.3 601 545.7 601 573 601C600.3 601 627.7 601 654.8 601C682 601 709 601 736.2 601C763.3 601 790.7 601 818 601C845.3 601 872.7 601 886.3 601L900 601L900 311L886.3 323C872.7 335 845.3 359 818 370C790.7 381 763.3 379 736.2 387C709 395 682 413 654.8 424C627.7 435 600.3 439 573 442C545.7 445 518.3 447 491 448C463.7 449 436.3 449 409 428C381.7 407 354.3 365 327 370C299.7 375 272.3 427 245.2 441C218 455 191 431 163.8 420C136.7 409 109.3 411 82 424C54.7 437 27.3 461 13.7 473L0 485Z" fill="#4cb5ae"></path></svg>